<?xml version="1.0" standalone="no"?>
<!DOCTYPE svg PUBLIC "-//W3C//DTD SVG 20010904//EN"
 "http://www.w3.org/TR/2001/REC-SVG-20010904/DTD/svg10.dtd">
<svg version="1.0" xmlns="http://www.w3.org/2000/svg"
 width="594.000000pt" height="594.000000pt" viewBox="0 0 594.000000 594.000000"
 preserveAspectRatio="xMidYMid meet">
<metadata>
Created by potrace 1.14, written by Peter Selinger 2001-2017
</metadata>
<g transform="translate(0.000000,594.000000) scale(0.100000,-0.100000)"
fill="#000000" stroke="none">
<path d="M1087 5504 c-1 -1 -27 -4 -57 -7 -57 -6 -102 -14 -132 -23 -9 -3 -27
-7 -40 -9 -13 -3 -32 -9 -43 -14 -11 -5 -47 -22 -80 -37 -62 -28 -138 -74
-143 -86 -2 -5 -8 -8 -14 -8 -11 0 -151 -139 -178 -176 -48 -65 -60 -84 -60
-93 0 -5 -4 -11 -8 -13 -9 -3 -68 -140 -84 -193 -5 -16 -11 -47 -14 -68 -3
-21 -7 -44 -8 -50 -1 -7 -4 -16 -7 -22 -7 -14 -3 -192 5 -245 4 -25 19 -85 32
-135 14 -49 31 -112 39 -140 7 -27 25 -90 40 -140 22 -76 53 -182 70 -245 2
-8 38 -134 80 -280 42 -146 78 -272 80 -281 2 -10 15 -57 29 -105 15 -49 42
-143 60 -209 19 -66 46 -159 60 -206 14 -47 27 -98 30 -112 2 -15 7 -31 11
-37 3 -5 8 -18 10 -27 1 -10 15 -60 30 -112 15 -51 28 -98 29 -105 2 -6 11
-38 21 -71 10 -33 20 -65 21 -71 1 -6 10 -38 20 -70 9 -33 18 -65 20 -72 1 -7
9 -36 18 -65 35 -116 58 -197 60 -209 1 -7 9 -38 18 -68 45 -149 69 -230 82
-280 43 -162 79 -267 117 -343 85 -166 244 -321 415 -402 61 -29 165 -64 204
-70 14 -2 45 -6 70 -11 73 -12 219 -6 300 12 96 21 208 61 239 85 13 11 28 19
33 19 12 0 90 54 125 86 15 14 32 29 38 32 10 7 62 65 115 128 13 16 48 76 77
133 30 58 65 120 78 138 14 18 61 90 105 160 44 70 83 133 88 138 4 6 22 35
40 65 18 30 38 64 45 74 7 11 36 57 65 103 28 45 52 85 52 88 0 3 5 11 10 18
6 7 40 59 75 117 76 126 91 147 99 139 4 -4 46 -138 62 -199 7 -30 23 -86 39
-140 9 -30 17 -62 20 -70 2 -8 8 -27 14 -42 6 -16 9 -28 7 -28 -2 0 3 -21 11
-48 8 -26 28 -94 44 -152 96 -339 120 -404 192 -510 43 -62 44 -63 115 -136
139 -141 325 -233 527 -259 106 -13 196 -10 304 12 20 4 38 8 41 8 53 10 250
102 263 122 4 7 13 13 19 13 15 0 91 63 146 123 118 125 196 277 233 452 14
69 19 246 8 290 -4 17 -10 46 -13 65 -3 19 -17 76 -31 125 -14 50 -28 97 -30
105 -2 8 -20 71 -40 140 -20 69 -38 132 -40 140 -2 8 -15 55 -29 103 -15 49
-28 96 -30 105 -2 9 -5 24 -8 32 -3 8 -13 40 -22 70 -8 30 -27 96 -41 145 -14
50 -28 97 -30 105 -2 8 -4 15 -5 15 -2 0 -7 20 -15 59 -3 16 -8 33 -11 38 -3
4 -7 16 -9 25 -4 18 -115 410 -134 471 -5 18 -10 33 -10 35 0 1 -2 9 -5 17 -4
12 -38 133 -61 220 -7 24 -73 252 -84 288 -10 33 -12 39 -16 57 -1 6 -10 36
-20 69 -9 32 -19 70 -21 84 -3 14 -10 35 -16 46 -6 12 -11 23 -10 26 1 3 -3
21 -8 40 -5 19 -10 40 -12 45 -1 6 -12 46 -26 90 -13 44 -25 87 -27 95 -2 8
-11 40 -20 70 -19 66 -46 161 -49 175 -13 53 -52 178 -65 210 -35 82 -49 108
-89 170 -84 130 -236 260 -382 327 -88 40 -125 51 -250 71 -280 45 -584 -60
-781 -271 -70 -75 -91 -101 -109 -137 -8 -16 -39 -63 -69 -105 -30 -41 -92
-136 -137 -210 -46 -74 -88 -140 -94 -147 -5 -7 -10 -15 -10 -18 0 -3 -20 -36
-44 -73 -24 -37 -88 -139 -142 -227 -54 -88 -101 -162 -105 -165 -3 -3 -9 -15
-13 -27 -4 -13 -11 -23 -16 -23 -4 0 -10 -8 -14 -17 -6 -19 -27 -55 -37 -63
-3 -3 -11 -14 -17 -25 -8 -16 -12 -17 -15 -5 -8 26 -78 274 -82 290 -2 8 -33
119 -70 245 -36 127 -68 237 -70 245 -59 237 -126 372 -258 517 -37 41 -169
143 -184 143 -6 0 -13 4 -15 8 -7 19 -193 93 -267 107 -52 10 -218 24 -224 19z"/>
</g>
</svg>
