<svg width="441" height="432" viewBox="0 0 441 432" fill="none" xmlns="http://www.w3.org/2000/svg">
<path d="M66.1207 173.822C63.5539 175.362 60.7818 176.594 57.7017 177.313C49.796 179.264 41.8903 177.724 35.5247 173.822C29.2617 169.921 24.4362 163.76 22.5881 156.06C18.7893 140.454 28.3377 124.745 43.9437 120.947C59.5497 117.148 75.2584 126.696 79.0573 142.302C82.1374 154.828 76.4905 167.457 66.1207 173.822Z" fill="#FE9563"/>
<path d="M59.6518 145.793C59.6518 150.619 55.6476 154.623 50.8221 154.623C45.9965 154.623 41.9923 150.619 41.9923 145.793C41.9923 140.968 45.9965 136.964 50.8221 136.964C55.7503 136.964 59.6518 140.968 59.6518 145.793Z" fill="white"/>
<path d="M66.12 170.229V173.823C63.5532 175.363 60.7811 176.595 57.7009 177.313C49.7952 179.264 41.8896 177.724 35.524 173.823V170.229C35.524 161.81 42.3003 154.931 50.822 154.931C59.241 154.931 66.12 161.81 66.12 170.229Z" fill="white"/>
<path d="M27.3092 53.3894C28.3359 52.7734 29.6706 52.7734 30.6973 53.3894C31.0053 53.5948 31.3134 53.6975 31.5187 53.9028C31.8267 54.1081 32.1347 54.2108 32.4427 54.3135C33.5721 54.8268 34.2908 55.8535 34.2908 57.0856L34.3935 61.2951L47.9461 60.8844L47.8434 56.6749C47.8434 55.4429 48.4594 54.3135 49.5888 53.6974C50.2049 53.3894 50.7182 52.9788 51.3342 52.6707C52.3609 51.952 53.593 51.8494 54.7224 52.4654L58.4185 54.4162L64.8868 42.4036L61.1907 40.4529C60.164 39.8368 59.4453 38.7075 59.5479 37.4754C59.5479 36.7567 59.5479 36.1407 59.4453 35.422C59.3426 34.1899 59.8559 33.0606 60.9853 32.3419L64.5788 30.1858L57.3918 18.5839L53.7983 20.8427C52.7716 21.4587 51.4369 21.4587 50.4102 20.8427C50.1022 20.6373 49.7942 20.5347 49.5888 20.3293C49.2808 20.124 48.9728 20.0213 48.6648 19.9186C47.5354 19.4053 46.8167 18.3786 46.8167 17.1465L46.714 12.937L33.1614 13.3477L33.2641 17.5572C33.2641 18.7893 32.6481 19.9186 31.5187 20.5347C30.9027 20.8427 30.3893 21.2534 29.7733 21.5614C28.7466 22.2801 27.5145 22.3828 26.3851 21.7667L22.689 19.816L16.2207 31.8285L19.9169 33.7793C20.9436 34.3953 21.6623 35.5247 21.5596 36.7567C21.5596 37.4754 21.5596 38.0914 21.6623 38.8101C21.7649 40.0422 21.2516 41.1716 20.1222 41.8903L16.6314 44.0464L23.8184 55.6482L27.3092 53.3894ZM30.6973 31.9312C33.5721 26.4896 40.3484 24.4362 45.79 27.4136C51.2316 30.2884 53.285 37.0647 50.3075 42.5063C47.4327 47.9479 40.6564 50.0013 35.2149 47.0238C29.876 44.0464 27.8225 37.3727 30.6973 31.9312Z" fill="#FE9563"/>
<path d="M401.956 297.849C402.367 297.131 403.189 296.72 404.01 296.72C404.215 296.72 404.523 296.72 404.729 296.72C404.934 296.72 405.242 296.72 405.447 296.72C406.269 296.72 407.09 297.131 407.501 297.849L408.938 300.416L417.152 295.693L415.714 293.126C415.304 292.408 415.304 291.484 415.817 290.765C416.125 290.354 416.33 289.944 416.536 289.533C416.946 288.814 417.665 288.301 418.589 288.301H421.464V278.752H418.589C417.768 278.752 416.946 278.239 416.536 277.52C416.33 277.11 416.125 276.699 415.817 276.288C415.304 275.57 415.304 274.646 415.714 273.927L417.152 271.36L408.938 266.637L407.501 269.204C407.09 269.923 406.269 270.333 405.447 270.333C405.242 270.333 404.934 270.333 404.729 270.333C404.523 270.333 404.215 270.333 404.01 270.333C403.189 270.333 402.367 269.923 401.956 269.204L400.519 266.637L392.305 271.36L393.743 273.927C394.153 274.646 394.153 275.57 393.64 276.288C393.332 276.699 393.127 277.11 392.921 277.52C392.511 278.239 391.792 278.752 390.868 278.752H387.993V288.301H390.868C391.689 288.301 392.511 288.814 392.921 289.533C393.127 289.944 393.332 290.354 393.64 290.765C394.153 291.484 394.153 292.408 393.743 293.126L392.305 295.693L400.519 300.416L401.956 297.849ZM397.028 283.475C397.028 279.163 400.519 275.672 404.831 275.672C409.143 275.672 412.634 279.163 412.634 283.475C412.634 287.787 409.143 291.278 404.831 291.278C400.519 291.278 397.028 287.787 397.028 283.475Z" fill="#FE9563"/>
<path d="M62.1166 77.5169C62.8353 77.9275 63.246 78.7489 63.246 79.5703C63.246 79.7756 63.246 80.0836 63.246 80.289C63.246 80.4943 63.246 80.8023 63.246 81.0077C63.246 81.829 62.8353 82.6504 62.1166 83.0611L59.5498 84.4985L64.2727 92.7122L66.8395 91.2748C67.5582 90.8641 68.4822 90.8641 69.2009 91.3775C69.6116 91.6855 70.0223 91.8908 70.4329 92.0962C71.1516 92.5068 71.665 93.2255 71.665 94.1496V97.0244H81.2134V94.1496C81.2134 93.3282 81.7268 92.5068 82.4455 92.0962C82.8562 91.8908 83.2668 91.6855 83.6775 91.3775C84.3962 90.8641 85.3203 90.8641 86.039 91.2748L88.6057 92.7122L93.3286 84.4985L90.8645 83.1638C90.1458 82.7531 89.7351 81.9317 89.7351 81.1103C89.7351 80.905 89.7351 80.597 89.7351 80.3916C89.7351 80.1863 89.7351 79.8783 89.7351 79.6729C89.7351 78.8516 90.1458 78.0302 90.8645 77.6195L93.4313 76.1821L88.7084 67.9684L86.1416 69.4058C85.4229 69.8165 84.4989 69.8165 83.7802 69.3032C83.3695 68.9951 82.9588 68.7898 82.5481 68.5845C81.8294 68.1738 81.3161 67.4551 81.3161 66.531V63.6562H71.7677V66.531C71.7677 67.3524 71.2543 68.1738 70.5356 68.5845C70.1249 68.7898 69.7142 68.9951 69.3036 69.3032C68.5849 69.8165 67.6608 69.8165 66.9421 69.4058L64.3753 67.9684L59.6525 76.1821L62.1166 77.5169ZM76.4905 72.5886C80.8027 72.5886 84.2935 76.0795 84.2935 80.3916C84.2935 84.7038 80.8027 88.1947 76.4905 88.1947C72.1784 88.1947 68.6875 84.7038 68.6875 80.3916C68.6875 76.0795 72.281 72.5886 76.4905 72.5886Z" fill="#FE9563"/>
<path d="M420.13 4.8252H363.25V73.9229H420.13V4.8252Z" fill="#FE9563"/>
<path d="M413.765 11.1904H369.821V67.6596H413.765V11.1904Z" fill="white"/>
<path d="M371.567 11.1904H369.821V67.6596H371.567V11.1904Z" fill="#FFCBB2"/>
<path d="M421.978 4.8252H420.232V73.9229H421.978V4.8252Z" fill="#FFCBB2"/>
<path d="M392.751 55.0781H403.121V24.2768H392.751V55.0781Z" fill="#FFB795"/>
<path d="M380.012 34.0371H407.631V18.9445L380.012 18.9445V34.0371Z" stroke="#FFB795" stroke-width="1.02671" stroke-miterlimit="10"/>
<path d="M420.13 175.054H363.25V244.152H420.13V175.054Z" fill="#FE9563"/>
<path d="M413.765 181.317H369.821V237.787H413.765V181.317Z" fill="white"/>
<path d="M371.567 181.317H369.821V237.787H371.567V181.317Z" fill="#FFCBB2"/>
<path d="M421.978 175.054H420.232V244.152H421.978V175.054Z" fill="#FFCBB2"/>
<path d="M394.874 194.356H384.504V225.157H394.874V194.356Z" fill="#EBEBEB"/>
<path d="M407.605 189.12H379.986V204.213H407.605V189.12Z" stroke="#FFCBB2" stroke-width="1.02671" stroke-miterlimit="10"/>
<path d="M420.13 90.2476H363.25V159.345H420.13V90.2476Z" fill="#FE9563"/>
<path d="M413.765 96.6133H369.821V153.082H413.765V96.6133Z" fill="white"/>
<path d="M371.567 96.6133H369.821V153.082H371.567V96.6133Z" fill="#FFCBB2"/>
<path d="M421.978 90.2476H420.232V159.345H421.978V90.2476Z" fill="#FFCBB2"/>
<path d="M396.309 111.192H387.479V133.575H396.309V111.192Z" fill="#FFB795"/>
<path d="M405.756 124.847H381.937V140.351H405.756V124.847Z" stroke="#FFB795" stroke-width="1.02671" stroke-miterlimit="10"/>
<path d="M35.833 264.789V413.148H125.465V264.789H35.833ZM44.0467 319.718H117.457V358.322H44.0467V319.718ZM44.0467 271.976H117.457V310.58H44.0467V271.976Z" fill="#767879"/>
<path d="M0.0232353 413.061H35.8555L35.8555 264.803H0.0232353L0.0232353 413.061Z" fill="#767879"/>
<path d="M99.9541 310.498H117.408V271.893H99.9541V310.498Z" fill="#DBDBDB"/>
<path d="M43.9676 403.787H116.864V366.928H43.9676V403.787Z" stroke="#DBDBDB" stroke-width="0.770034" stroke-miterlimit="10"/>
<path d="M76.264 384.647H90.7407V377.358H76.264V384.647Z" fill="#DBDBDB"/>
<path d="M72.013 384.134H86.4896V377.871H72.013V384.134Z" stroke="#DBDBDB" stroke-width="0.770034" stroke-miterlimit="10"/>
<path d="M99.9541 358.374H117.408V319.77H99.9541V358.374Z" fill="#DBDBDB"/>
<path d="M36.8602 355.755C36.8602 355.755 45.2792 325.673 51.9528 315.508C58.6265 305.344 71.1524 294.05 71.1524 294.05C71.1524 294.05 70.7417 340.457 36.8602 355.755Z" fill="#FE9563"/>
<path d="M37.4757 355.242C40.3505 350.622 42.8146 345.694 45.0734 340.663C46.1001 335.324 47.3321 329.985 49.2829 324.851C49.2829 324.749 49.4882 324.851 49.3856 324.954C48.2562 329.677 47.0241 334.4 45.7921 339.123C49.1802 331.833 52.363 324.441 56.3672 317.459C57.1886 314.071 58.7286 310.888 60.2687 307.808C60.2687 307.705 60.4741 307.808 60.3714 307.911C59.3447 310.272 58.5233 312.736 57.8046 315.098C59.7554 312.018 61.8088 309.04 64.1702 306.268C64.2729 306.063 64.5809 306.268 64.4782 306.473C59.1393 313.352 55.3405 321.155 51.8497 329.061C55.6485 324.954 59.1393 320.539 62.3221 315.919H62.4248C59.1393 321.155 55.3405 325.878 51.131 330.498C48.5642 336.248 45.9974 342.1 42.9173 347.644C49.0776 342.408 53.8004 335.735 58.4206 329.266C58.5233 329.164 58.7286 329.266 58.626 329.472C53.9031 336.556 49.0776 343.23 42.4039 348.568C41.0692 350.93 39.5291 353.291 37.8864 355.55C37.7837 356.063 37.1677 355.653 37.4757 355.242Z" fill="#263238"/>
<path d="M35.216 355.858C35.216 355.858 50.3087 328.137 45.8938 301.237C41.479 274.337 36.8588 264.789 36.8588 264.789C36.8588 264.789 13.2444 306.576 35.216 355.858Z" fill="#FE9563"/>
<path d="M29.0554 312.223C30.2875 320.026 32.3409 327.212 34.9077 334.605C34.9077 324.748 35.113 314.892 35.421 305.036C33.6756 299.081 32.8543 292.92 32.5462 286.657C32.5462 286.452 32.8543 286.452 32.8543 286.657C33.2649 291.996 34.2917 297.233 35.5237 302.469C35.7291 294.358 36.0371 286.144 36.3451 278.033C36.3451 277.93 36.5504 277.93 36.5504 278.033C36.5504 290.764 36.5504 303.495 36.4478 316.124C38.3985 311.196 39.6306 306.165 40.7599 301.031H40.8626C40.4519 306.986 38.6038 312.736 36.4478 318.177C36.3451 326.288 36.3451 334.399 36.1397 342.51C38.7065 333.886 41.376 325.467 42.0947 316.329C42.0947 316.227 42.3 316.227 42.3 316.329C42.0947 326.391 39.5279 336.658 36.1397 346.104C36.1397 346.207 36.0371 346.309 35.9344 346.309C35.8317 349.287 35.7291 352.264 35.6264 355.242C35.6264 355.652 35.0104 355.652 35.0104 355.242C34.9077 349.184 34.805 343.127 34.9077 336.966C31.5195 329.163 29.7741 320.436 28.9528 312.017C28.9528 312.222 29.0554 312.12 29.0554 312.223Z" fill="#263238"/>
<path d="M30.0819 307.91C30.5952 310.272 31.0059 312.839 31.1086 315.2C31.1086 315.303 31.0059 315.303 31.0059 315.2C30.3899 312.839 30.0819 310.272 29.7739 307.91C29.7739 307.808 30.0819 307.808 30.0819 307.91Z" fill="#263238"/>
<path d="M38.912 287.684C38.912 287.581 39.0147 287.581 39.0147 287.684C39.0147 289.327 38.7066 291.175 38.296 292.715C38.296 292.818 38.0906 292.818 38.0906 292.612C38.3986 291.072 38.604 289.327 38.912 287.684Z" fill="#263238"/>
<path d="M29.7746 355.858C29.7746 355.858 30.3907 326.904 22.0743 312.53C13.7579 298.156 0 290.764 0 290.764C0 290.764 5.54424 341.792 29.7746 355.858Z" fill="#FE9563"/>
<path d="M14.5789 331.114C18.0698 336.145 21.5606 340.97 25.7701 345.385C24.1274 339.43 22.1766 333.68 20.0205 327.931C15.4003 323.824 10.7801 319.614 7.90532 314.07C7.90532 313.968 8.00799 313.865 8.00799 313.968C11.0881 318.896 15.195 322.9 19.5072 326.699C16.2217 318.074 12.3202 309.758 7.90532 301.544C7.80265 301.339 8.11067 301.134 8.21334 301.339C10.8828 305.651 13.2442 310.066 15.503 314.584C14.6816 311.503 14.0656 308.321 13.3469 305.241C13.3469 305.138 13.4496 305.138 13.4496 305.241C14.887 309.142 16.427 313.352 16.8377 317.561C19.7125 323.927 22.1766 330.6 24.1274 337.377C23.922 333.064 23.614 328.752 23.2033 324.44C23.2033 324.337 23.306 324.337 23.306 324.44C24.23 329.266 24.6407 334.091 24.538 339.019C25.7701 343.332 26.6941 347.746 27.5155 352.059C27.5155 352.161 27.4128 352.264 27.3102 352.059C26.8995 350.21 26.3861 348.362 25.8728 346.514H25.7701C21.5606 341.894 17.3511 336.761 14.5789 331.114C14.5789 331.114 14.5789 331.011 14.5789 331.114Z" fill="#263238"/>
<path d="M5.03077 307.499C5.95481 308.526 6.77618 309.553 7.70022 310.579C8.52159 311.504 9.44563 312.325 10.0617 313.352C10.0617 313.352 10.0617 313.454 9.95898 313.454C8.93227 312.736 8.00823 311.709 7.18686 310.682C6.26282 309.655 5.54412 308.731 4.82542 307.602C4.82542 307.499 4.9281 307.499 5.03077 307.499Z" fill="#263238"/>
<path d="M53.3878 357.911L52.3611 371.669L49.1783 413.148H21.7651L18.5823 371.669L17.5556 357.911C18.685 357.911 35.523 357.911 35.523 357.911C35.523 357.911 52.2584 357.911 53.3878 357.911Z" fill="#37474F"/>
<path d="M53.3881 357.911L52.772 366.228L18.2745 367.562L17.5558 357.809C18.6852 357.809 35.5233 357.809 35.5233 357.809C35.5233 357.809 52.2587 357.911 53.3881 357.911Z" fill="#263238"/>
<path d="M15.0996 361.694H55.8601V351.221H15.0996V361.694Z" fill="#37474F"/>
<path d="M0 413.046C140.249 412.43 297.541 412.43 437.79 413.046C297.541 413.765 140.249 413.663 0 413.046Z" fill="#263238"/>
<path d="M78.543 399.801V13.2446C78.543 5.95493 84.4979 0 91.7875 0H341.689C348.979 0 354.934 5.95493 354.934 13.2446V399.801C354.934 407.091 348.979 413.046 341.689 413.046H91.7875C84.4979 413.046 78.543 407.194 78.543 399.801Z" fill="#455A64"/>
<path d="M343.332 28.9531H90.5557V384.503H343.332V28.9531Z" fill="white"/>
<path d="M256.324 221.346L262.995 227.314L273.176 218.186" stroke="#FE9563" stroke-width="4.58546" stroke-linecap="square"/>
<path d="M186.657 17.6597V15.9143C186.657 15.1956 187.273 14.5796 187.992 14.5796H245.59C246.309 14.5796 246.925 15.1956 246.925 15.9143V17.6597C246.925 18.3784 246.309 18.9944 245.59 18.9944H187.992C187.273 18.8918 186.657 18.3784 186.657 17.6597Z" fill="#263238"/>
<path d="M216.74 406.167C221.05 406.167 224.543 402.674 224.543 398.364C224.543 394.055 221.05 390.561 216.74 390.561C212.431 390.561 208.937 394.055 208.937 398.364C208.937 402.674 212.431 406.167 216.74 406.167Z" fill="#263238"/>
<path d="M216.841 181.933C240.94 181.933 260.477 162.397 260.477 138.298C260.477 114.199 240.94 94.6626 216.841 94.6626C192.742 94.6626 173.206 114.199 173.206 138.298C173.206 162.397 192.742 181.933 216.841 181.933Z" fill="#455A64"/>
<path d="M242.202 173.822C241.278 174.438 240.354 175.054 239.43 175.67C237.171 177.005 234.81 178.237 232.243 179.161C231.627 179.366 231.011 179.572 230.498 179.777C229.163 180.188 227.726 180.598 226.391 180.906C225.159 181.214 223.927 181.42 222.592 181.522C220.949 179.058 219.512 176.902 218.588 175.157C217.972 174.027 217.15 172.487 216.226 170.742C213.557 165.403 210.785 158.216 213.352 156.265C213.454 156.265 213.454 156.163 213.454 156.163C213.557 156.163 213.557 156.06 213.66 156.06C213.66 156.06 213.762 156.06 213.762 155.957C213.968 155.855 214.276 155.752 214.481 155.752C214.789 155.649 215.2 155.649 215.61 155.752C216.945 155.855 218.691 156.471 220.949 157.6C221.463 157.805 221.873 158.113 222.489 158.421C222.592 158.421 222.592 158.524 222.695 158.524C227.212 161.091 234.707 167.354 242.202 173.822Z" fill="#FFC4C0"/>
<path d="M243.743 172.693C243.229 173.104 242.716 173.514 242.203 173.822C241.279 174.438 240.355 175.054 239.431 175.67C237.172 177.005 234.81 178.237 232.244 179.161C231.628 179.366 231.012 179.572 230.498 179.777C229.163 180.188 227.726 180.599 226.391 180.907C225.159 181.215 223.927 181.42 222.593 181.523C222.387 181.523 222.079 181.625 221.874 181.625C219.204 177.416 216.946 173.617 215.406 170.639C215.303 170.434 215.2 170.331 215.098 170.126C214.584 168.997 214.071 168.073 213.66 167.046C213.352 166.327 213.044 165.609 212.839 164.993C212.736 164.582 212.531 164.171 212.428 163.76C212.325 163.452 212.223 163.042 212.12 162.734C212.017 162.426 212.017 162.118 211.915 161.707C211.812 160.886 211.709 160.064 211.812 159.448C211.812 158.832 212.017 158.319 212.12 157.806C212.223 157.6 212.325 157.292 212.531 157.087C212.633 156.984 212.633 156.882 212.736 156.779C212.839 156.676 212.941 156.573 212.941 156.471C213.044 156.368 213.147 156.368 213.249 156.265L213.352 156.163C213.455 156.163 213.455 156.06 213.455 156.06C213.557 156.06 213.557 155.957 213.66 155.957C213.66 155.957 213.763 155.957 213.763 155.855C213.968 155.752 214.173 155.649 214.379 155.649C215.714 155.341 217.562 155.444 219.718 156.265C220.642 156.573 221.566 156.984 222.593 157.395C224.235 158.216 225.878 159.14 227.829 160.475C232.654 163.76 238.301 168.175 243.743 172.693Z" fill="#FE9563"/>
<path d="M224.543 163.35C224.338 163.144 224.03 162.939 223.824 162.631C223.722 162.528 223.619 162.528 223.516 162.425C223.414 162.323 223.414 162.323 223.311 162.323C223.208 162.22 223.106 162.117 223.003 162.117C222.9 162.015 222.798 161.912 222.695 161.912C222.592 161.912 222.592 161.809 222.49 161.809C222.49 161.809 222.387 161.809 222.387 161.707C222.284 161.604 222.079 161.604 221.976 161.501C222.079 161.707 222.182 162.015 222.284 162.22C222.695 162.939 223.311 163.658 223.824 164.274C224.03 164.479 224.235 164.684 224.543 164.89C224.748 164.992 224.954 165.198 225.159 165.3C225.57 165.608 226.083 165.916 226.597 166.122C226.083 164.992 225.364 164.171 224.543 163.35ZM224.543 163.35C224.338 163.144 224.03 162.939 223.824 162.631C223.722 162.528 223.619 162.528 223.516 162.425C223.414 162.323 223.414 162.323 223.311 162.323C223.208 162.22 223.106 162.117 223.003 162.117C222.9 162.015 222.798 161.912 222.695 161.912C222.592 161.912 222.592 161.809 222.49 161.809C222.49 161.809 222.387 161.809 222.387 161.707C222.284 161.604 222.079 161.604 221.976 161.501C222.079 161.707 222.182 162.015 222.284 162.22C222.695 162.939 223.311 163.658 223.824 164.274C224.03 164.479 224.235 164.684 224.543 164.89C224.748 164.992 224.954 165.198 225.159 165.3C225.57 165.608 226.083 165.916 226.597 166.122C226.083 164.992 225.364 164.171 224.543 163.35Z" fill="white"/>
<path opacity="0.1" d="M239.431 175.67C237.172 177.005 234.811 178.237 232.244 179.161C231.628 179.366 231.012 179.572 230.498 179.777C229.164 180.188 227.726 180.598 226.391 180.906C225.159 181.215 223.927 181.42 222.593 181.523C222.387 181.523 222.079 181.625 221.874 181.625C219.205 177.416 216.946 173.617 215.406 170.639C215.303 170.434 215.2 170.331 215.098 170.126C214.584 168.997 214.071 168.073 213.66 167.046C213.352 166.327 213.044 165.608 212.839 164.992C212.736 164.582 212.531 164.171 212.428 163.76C212.326 163.452 212.223 163.042 212.12 162.734C212.018 162.426 212.018 162.118 211.915 161.707C211.812 160.886 211.71 160.064 211.812 159.448C211.812 158.832 212.018 158.319 212.12 157.805C212.223 157.6 212.326 157.292 212.531 157.087C212.634 156.984 212.634 156.881 212.736 156.779C212.839 156.676 212.942 156.573 212.942 156.471C213.044 156.368 213.147 156.368 213.25 156.265L213.352 156.163C213.455 156.163 213.455 156.06 213.455 156.06C213.558 156.06 213.558 155.957 213.66 155.957C213.66 155.957 213.763 155.957 213.763 155.855C213.968 155.752 214.174 155.649 214.482 155.649C214.79 155.547 215.098 155.547 215.406 155.547L215.611 155.752L219.205 158.832L222.182 161.296L223.619 162.528L239.431 175.67Z" fill="black"/>
<path d="M230.498 179.777C229.163 180.188 227.726 180.598 226.391 180.906C225.159 181.214 223.927 181.42 222.592 181.522C222.387 181.522 222.079 181.625 221.874 181.625C220.231 181.83 218.588 181.933 216.945 181.933C212.017 181.933 207.294 181.112 202.88 179.572H202.777H202.674C202.469 179.469 202.366 179.469 202.161 179.366C197.849 177.826 193.742 175.567 190.251 172.795C191.483 170.639 192.612 168.791 193.639 167.148C194.358 165.916 195.077 164.89 195.795 163.966C199.389 158.832 201.853 156.779 203.804 155.752C203.906 155.649 204.009 155.649 204.214 155.547C204.317 155.444 204.522 155.444 204.625 155.341C204.83 155.239 205.138 155.136 205.344 155.033C207.397 154.315 210.477 154.007 213.455 154.212C215.919 154.417 218.383 155.136 220.026 156.368C220.436 156.779 220.847 157.189 221.155 157.703C221.463 158.319 221.874 158.832 222.182 159.448C222.284 159.653 222.387 159.859 222.592 160.064C223.003 160.885 223.414 161.604 223.824 162.528C223.824 162.631 223.927 162.631 223.927 162.631C224.132 163.042 224.338 163.452 224.543 163.863C224.748 164.274 224.954 164.684 225.159 165.198C227.007 169.407 228.855 174.233 230.498 179.264C230.395 179.469 230.498 179.572 230.498 179.777Z" fill="#FE9563"/>
<path d="M215.611 177.929C214.482 177.929 213.455 178.032 212.326 178.545C213.455 178.956 214.482 179.058 215.611 179.161C216.741 179.161 217.767 179.058 218.897 178.545C217.767 178.032 216.741 177.929 215.611 177.929ZM196.925 163.042C196.823 163.144 196.617 163.247 196.514 163.247C196.412 163.247 196.206 163.452 196.104 163.555C196.001 163.555 196.001 163.658 195.898 163.658C195.796 163.76 195.796 163.76 195.693 163.863C195.385 164.068 195.077 164.376 194.769 164.684C194.05 165.506 193.332 166.327 192.818 167.456C193.024 167.354 193.332 167.251 193.537 167.148C194.256 166.738 194.974 166.122 195.488 165.608C196.206 164.787 196.925 163.966 197.439 162.836C197.233 162.836 197.131 162.939 196.925 163.042ZM224.441 163.966C224.236 163.555 224.03 163.144 223.825 162.734C223.722 162.631 223.62 162.631 223.517 162.528C223.414 162.426 223.414 162.425 223.312 162.425C223.209 162.323 223.106 162.22 223.004 162.22C222.901 162.117 222.798 162.015 222.696 162.015C222.593 162.015 222.593 161.912 222.49 161.912L222.388 161.809C222.285 161.707 222.08 161.707 221.977 161.604C222.08 161.809 222.182 162.117 222.285 162.323C222.696 163.042 223.312 163.76 223.825 164.376C224.03 164.582 224.236 164.787 224.544 164.992C224.749 165.095 224.954 165.3 225.16 165.403C224.852 164.787 224.646 164.376 224.441 163.966ZM224.441 163.966C224.236 163.555 224.03 163.144 223.825 162.734C223.722 162.631 223.62 162.631 223.517 162.528C223.414 162.426 223.414 162.425 223.312 162.425C223.209 162.323 223.106 162.22 223.004 162.22C222.901 162.117 222.798 162.015 222.696 162.015C222.593 162.015 222.593 161.912 222.49 161.912L222.388 161.809C222.285 161.707 222.08 161.707 221.977 161.604C222.08 161.809 222.182 162.117 222.285 162.323C222.696 163.042 223.312 163.76 223.825 164.376C224.03 164.582 224.236 164.787 224.544 164.992C224.749 165.095 224.954 165.3 225.16 165.403C224.852 164.787 224.646 164.376 224.441 163.966Z" fill="white"/>
<path d="M206.782 162.836C206.474 165.198 205.857 168.175 204.625 171.769C203.701 174.541 202.88 177.005 202.059 179.366C197.746 177.826 193.64 175.568 190.149 172.795C189.327 172.179 188.403 171.461 187.685 170.639C189.122 168.689 190.559 166.841 192.1 164.992C196.925 159.038 201.135 155.752 203.804 155.547C203.907 155.547 204.009 155.547 204.112 155.547C206.268 155.547 207.398 157.908 206.782 162.836Z" fill="#FFC4C0"/>
<path d="M207.398 163.657C207.09 166.327 206.576 168.688 206.371 169.202C205.858 171.152 204.934 173.822 203.701 176.902C203.393 177.723 202.983 178.647 202.572 179.571H202.469C202.264 179.469 202.161 179.469 201.956 179.366C197.644 177.826 193.537 175.567 190.046 172.795C189.225 172.179 188.301 171.46 187.582 170.639C187.274 170.434 186.966 170.126 186.761 169.818C189.841 165.813 192.921 162.528 195.59 160.166C199.595 156.676 202.264 155.238 204.112 155.238C204.215 155.238 204.318 155.238 204.523 155.238C207.603 155.341 207.808 159.858 207.398 163.657Z" fill="#FE9563"/>
<path d="M196.925 163.041C196.823 163.144 196.617 163.246 196.514 163.246C196.412 163.246 196.206 163.452 196.104 163.554C196.001 163.554 196.001 163.657 195.898 163.657C195.796 163.76 195.693 163.76 195.693 163.862C195.385 164.068 195.077 164.376 194.769 164.684C194.05 165.505 193.332 166.327 192.818 167.456C193.024 167.353 193.332 167.251 193.537 167.148C194.256 166.737 194.974 166.121 195.488 165.608C196.206 164.787 196.925 163.965 197.439 162.836C197.233 162.836 197.131 162.938 196.925 163.041Z" fill="white"/>
<path d="M203.804 176.902C203.496 177.826 203.188 178.75 202.777 179.571H202.675H202.572C202.983 178.647 203.291 177.723 203.804 176.902C203.701 176.799 203.701 176.799 203.804 176.902Z" fill="#263238"/>
<path d="M216.638 170.845C212.018 171.05 205.755 162.734 203.804 156.676C203.702 156.266 205.036 152.364 206.474 147.641C207.295 144.767 208.219 141.481 208.835 138.504C208.938 137.888 226.803 146.82 226.803 146.82C226.803 146.82 223.722 152.775 222.696 158.011C222.593 158.422 222.593 158.833 222.593 159.243C222.593 159.346 222.593 159.346 222.593 159.449C222.49 161.913 221.053 170.64 216.638 170.845Z" fill="#FFC4C0"/>
<path d="M209.964 138.812C209.861 144.048 210.58 156.985 220.642 159.243C221.36 159.449 221.976 159.449 222.592 159.551C222.592 159.449 222.592 159.449 222.592 159.346C222.592 158.935 222.592 158.525 222.695 158.114C223.722 152.878 226.802 146.923 226.802 146.923C226.802 146.923 213.865 140.352 209.964 138.812Z" fill="#263238"/>
<path d="M205.549 118.688C203.599 125.567 207.603 145.177 212.531 149.489C219.718 155.752 231.217 156.06 236.453 147.538C241.484 139.222 235.837 113.759 230.293 109.858C222.285 104.108 208.424 108.523 205.549 118.688Z" fill="#FFC4C0"/>
<path d="M222.797 131.11L222.695 131.213C223.003 132.548 223.208 134.088 222.181 134.807V134.909C223.619 134.293 223.311 132.24 222.797 131.11Z" fill="#263238"/>
<path d="M221.257 129.981C219.101 130.289 219.923 134.601 221.976 134.293C223.927 133.985 223.003 129.673 221.257 129.981Z" fill="#263238"/>
<path d="M230.293 129.571C230.293 129.468 230.395 129.571 230.395 129.673C230.601 131.008 231.114 132.446 232.346 132.651V132.754C230.909 132.856 230.293 130.906 230.293 129.571Z" fill="#263238"/>
<path d="M231.217 127.928C233.27 127.312 234.297 131.624 232.346 132.137C230.498 132.651 229.471 128.441 231.217 127.928Z" fill="#263238"/>
<path d="M219.204 127.928C219.718 127.62 220.231 127.312 220.744 127.004C221.36 126.696 221.874 126.388 222.182 125.772C222.387 125.464 222.182 124.848 221.874 124.745C221.155 124.334 220.334 124.54 219.615 124.95C218.794 125.361 218.28 125.874 217.972 126.696C217.562 127.517 218.486 128.236 219.204 127.928Z" fill="#263238"/>
<path d="M232.86 126.182C232.244 126.285 231.731 126.182 231.114 126.182C230.396 126.182 229.882 126.285 229.266 125.874C228.958 125.669 228.856 125.156 229.061 124.745C229.472 123.924 230.293 123.718 231.114 123.718C232.039 123.718 232.757 123.821 233.476 124.437C234.092 125.053 233.579 126.182 232.86 126.182Z" fill="#263238"/>
<path d="M223.619 142.712C223.927 143.123 224.132 143.534 224.646 143.636C225.056 143.739 225.672 143.636 226.083 143.534C226.083 143.534 226.186 143.534 226.083 143.636C225.672 144.047 224.851 144.252 224.235 144.047C223.619 143.842 223.413 143.328 223.413 142.712C223.413 142.61 223.516 142.61 223.619 142.712Z" fill="#263238"/>
<path d="M224.75 138.81C225.674 139.837 226.907 140.248 228.139 140.248C228.652 140.248 229.268 140.145 229.781 140.042C229.884 140.042 229.987 139.94 230.089 139.94C230.192 139.94 230.295 139.837 230.397 139.837C230.5 139.734 230.603 139.632 230.603 139.529V139.426V139.324C230.397 138.297 229.987 136.757 229.987 136.757C230.397 136.86 232.451 137.373 232.348 136.86C231.219 132.548 229.987 127.619 227.933 123.615C227.831 123.512 227.625 123.512 227.728 123.718C228.652 127.927 230.295 132.034 231.321 136.244C230.705 136.141 229.576 135.936 229.063 136.038C228.96 136.141 229.884 139.016 229.987 139.426C228.344 139.94 226.907 139.734 225.058 138.913C224.648 138.605 224.648 138.708 224.75 138.81Z" fill="#263238"/>
<path d="M204.83 134.088C210.066 134.293 212.633 128.133 211.298 123.102C211.298 123.102 225.159 124.642 225.57 113.554C225.57 113.554 228.342 118.277 234.708 118.379L236.35 122.486C237.788 122.076 239.225 117.969 235.632 114.889C235.632 114.889 235.324 109.344 231.114 106.162C227.007 102.876 223.003 105.237 223.003 105.237C223.003 105.237 219.718 102.568 214.584 103.389C209.45 104.108 207.5 108.831 207.5 108.831C207.5 108.831 200.723 110.268 199.594 115.197C198.567 120.125 201.134 123.308 201.134 123.308C201.134 123.308 199.491 125.258 200.415 129.365C201.031 131.829 203.187 133.985 204.83 134.088Z" fill="#263238"/>
<path d="M225.262 112.527C225.364 113.451 225.467 114.375 225.364 115.197C225.364 116.121 225.159 116.942 224.954 117.866C224.44 119.509 223.311 121.049 221.873 121.87C220.436 122.897 218.588 123 216.842 123.308C215.918 123.308 214.994 123.308 214.173 123.308C213.249 123.205 212.325 123.102 211.504 123.102C212.428 123.308 213.249 123.41 214.173 123.616C215.097 123.718 216.021 123.718 216.945 123.821C218.793 123.718 220.744 123.513 222.284 122.486C223.927 121.459 225.056 119.817 225.57 117.969C225.775 116.223 225.672 114.272 225.262 112.527Z" fill="#263238"/>
<path d="M232.552 118.79C231.012 118.277 229.574 117.558 228.342 116.634C227.726 116.12 227.213 115.607 226.7 114.991C226.186 114.375 225.878 113.656 225.468 112.938C225.57 113.759 225.776 114.58 226.289 115.299C226.7 116.018 227.316 116.634 227.932 117.147C228.65 117.66 229.369 118.071 230.088 118.379C230.909 118.585 231.628 118.79 232.552 118.79Z" fill="#263238"/>
<path d="M210.169 134.704C210.169 134.704 205.446 128.544 202.674 130.187C199.799 131.932 203.598 140.967 206.986 142.097C210.477 143.226 211.504 140.043 211.504 140.043L210.169 134.704Z" fill="#FFC4C0"/>
<path d="M203.701 132.754C203.701 132.754 203.701 132.856 203.701 132.754C206.063 133.678 207.5 135.834 208.424 138.093C207.705 137.271 206.679 136.758 205.549 137.682C205.447 137.682 205.549 137.785 205.652 137.785C206.576 137.579 207.295 137.682 208.013 138.401C208.527 138.914 208.835 139.633 209.245 140.249C209.348 140.454 209.759 140.351 209.656 140.043C209.656 140.043 209.656 140.043 209.656 139.941C209.553 137.066 206.987 132.959 203.701 132.754Z" fill="#263238"/>
<g opacity="0.2">
<path d="M216.331 136.552C216.331 136.758 216.125 136.86 216.023 136.86C215.817 136.86 215.715 136.655 215.715 136.552C215.715 136.347 215.92 136.244 216.023 136.244C216.228 136.142 216.331 136.347 216.331 136.552Z" fill="black"/>
<path d="M223.005 136.45C223.005 136.655 222.799 136.758 222.696 136.758C222.491 136.758 222.388 136.552 222.388 136.45C222.388 136.244 222.594 136.142 222.696 136.142C222.799 136.142 223.005 136.347 223.005 136.45Z" fill="black"/>
<path d="M220.54 138.709C220.54 138.914 220.335 139.017 220.232 139.017C220.027 139.017 219.924 138.811 219.924 138.709C219.924 138.503 220.13 138.401 220.232 138.401C220.438 138.401 220.54 138.503 220.54 138.709Z" fill="black"/>
<path d="M216.638 133.883C216.638 134.088 216.433 134.191 216.33 134.191C216.125 134.191 216.022 133.985 216.022 133.883C216.022 133.677 216.228 133.575 216.33 133.575C216.536 133.575 216.638 133.78 216.638 133.883Z" fill="black"/>
<path d="M219.719 135.834C219.719 136.039 219.514 136.142 219.411 136.142C219.206 136.142 219.103 135.936 219.103 135.834C219.103 135.628 219.309 135.526 219.411 135.526C219.514 135.526 219.719 135.628 219.719 135.834Z" fill="black"/>
<path d="M236.147 131.932C236.147 132.138 235.941 132.24 235.839 132.24C235.633 132.24 235.531 132.035 235.531 131.932C235.531 131.727 235.736 131.624 235.839 131.624C235.941 131.624 236.147 131.83 236.147 131.932Z" fill="black"/>
<path d="M233.579 133.678C233.579 133.883 233.374 133.986 233.271 133.986C233.066 133.986 232.963 133.78 232.963 133.678C232.963 133.472 233.169 133.37 233.271 133.37C233.477 133.37 233.579 133.472 233.579 133.678Z" fill="black"/>
<path d="M234.093 135.731C234.093 135.937 233.888 136.039 233.785 136.039C233.58 136.039 233.477 135.834 233.477 135.731C233.477 135.526 233.682 135.423 233.785 135.423C233.99 135.423 234.093 135.629 234.093 135.731Z" fill="black"/>
<path d="M236.352 134.396C236.352 134.602 236.146 134.704 236.044 134.704C235.838 134.704 235.736 134.499 235.736 134.396C235.736 134.191 235.941 134.088 236.044 134.088C236.146 134.088 236.352 134.191 236.352 134.396Z" fill="black"/>
</g>
<path d="M160.99 412.224C163.865 413.251 248.568 414.894 251.751 412.943C252.162 412.738 253.497 384.708 253.497 384.708C253.394 384.298 254.831 381.628 256.987 377.829C263.045 367.254 274.852 348.363 274.852 348.363L224.543 333.167L203.906 374.544L198.67 385.119C198.67 385.119 187.068 389.637 177.007 394.154C170.846 396.926 165.405 399.493 164.173 400.417C160.887 402.984 158.115 411.198 160.99 412.224Z" fill="#FFC4C0"/>
<path d="M160.99 412.224C163.865 413.251 248.568 414.894 251.751 412.943C252.162 412.738 253.497 384.708 253.497 384.708C253.394 384.298 254.831 381.628 256.987 377.829L203.906 374.544L198.67 385.119C198.67 385.119 187.068 389.637 177.007 394.154C170.846 396.926 165.405 399.493 164.173 400.417C160.887 402.984 158.115 411.198 160.99 412.224Z" fill="white"/>
<path d="M160.578 412.532C163.556 413.559 248.362 414.996 251.648 413.045C252.88 412.327 254.42 399.185 253.496 384.708L198.772 383.784C198.772 383.784 167.047 397.747 163.761 400.314C160.373 403.086 157.601 411.505 160.578 412.532Z" fill="#FE9563"/>
<path opacity="0.1" d="M251.647 413.046C250.415 413.764 238.403 414.072 223.413 414.072L252.161 384.811H253.495C254.419 399.288 252.879 412.327 251.647 413.046Z" fill="black"/>
<path d="M161.914 409.247C176.185 409.144 233.578 410.068 247.644 410.992C247.747 410.992 247.747 411.095 247.644 411.095C233.578 411.506 176.185 410.171 161.914 409.452C161.606 409.452 161.606 409.247 161.914 409.247Z" fill="#263238"/>
<path d="M169.306 397.543C172.694 397.44 175.98 399.083 177.725 401.136C179.471 403.087 180.908 405.859 180.805 408.734C180.805 408.837 180.6 408.837 180.6 408.734C179.881 403.19 174.953 398.159 169.306 397.646C169.101 397.646 169.101 397.543 169.306 397.543Z" fill="#263238"/>
<path d="M194.255 385.222C199.902 385.222 206.473 387.378 209.964 392.101C210.066 392.306 209.861 392.512 209.656 392.409C204.522 389.637 199.697 387.584 194.152 385.941C193.844 385.838 193.844 385.222 194.255 385.222Z" fill="#263238"/>
<path d="M189.841 386.865C195.487 386.865 202.058 389.021 205.549 393.744C205.652 393.949 205.447 394.154 205.241 394.052C200.108 391.28 195.282 389.226 189.738 387.584C189.327 387.481 189.43 386.865 189.841 386.865Z" fill="#263238"/>
<path d="M185.426 388.507C191.073 388.507 197.644 390.664 201.134 395.386C201.237 395.592 201.032 395.797 200.826 395.694C195.693 392.922 190.867 390.869 185.323 389.226C184.912 389.124 185.015 388.507 185.426 388.507Z" fill="#263238"/>
<path d="M181.011 390.151C186.658 390.151 193.229 392.307 196.72 397.03C196.822 397.235 196.617 397.44 196.412 397.338C191.278 394.565 186.453 392.512 180.908 390.869C180.498 390.767 180.6 390.151 181.011 390.151Z" fill="#263238"/>
<path d="M244.154 397.44C250.519 397.543 250.314 407.502 243.948 407.399C237.583 407.194 237.788 397.337 244.154 397.44Z" fill="#263238"/>
<path d="M188.711 378.343C191.688 382.347 196.308 384.914 200.313 387.789C200.723 388.097 201.237 387.789 201.339 387.378C201.442 387.378 201.545 387.378 201.545 387.173C201.339 382.245 199.388 376.598 196.616 372.491C194.871 370.027 191.277 367.563 188.403 369.924C185.631 372.183 186.965 375.982 188.711 378.343ZM188.505 373.62C189.224 367.46 194.666 372.286 195.898 374.236C196.719 375.468 197.335 376.803 197.951 378.138C199.183 380.91 200.005 383.785 201.031 386.66C199.183 385.119 197.13 383.785 195.179 382.347C192.92 380.397 188.197 377.008 188.505 373.62Z" fill="#263238"/>
<path d="M221.874 383.887C221.463 380.191 217.254 379.267 214.276 379.78C209.451 380.602 204.009 383.271 200.416 386.557C200.313 386.659 200.313 386.762 200.416 386.762C200.21 387.173 200.313 387.686 200.827 387.789C205.652 388.61 210.786 390.15 215.714 389.432C218.589 389.124 222.182 387.378 221.874 383.887ZM208.424 387.686C206.063 387.378 203.701 386.865 201.237 386.557C203.907 385.222 206.576 383.785 209.451 382.758C210.786 382.245 212.223 381.731 213.66 381.423C215.817 380.91 223.209 381.423 219.205 386.249C217.049 389.021 211.299 388.097 208.424 387.686Z" fill="#263238"/>
<path d="M260.786 377.419L201.134 368.384C201.134 368.384 229.779 311.196 247.541 280.19C257.398 262.941 284.4 262.119 297.542 282.756C315.099 310.375 328.754 336.248 336.557 350.622L350.11 351.751L347.235 373.826L302.265 383.887C285.016 385.941 272.901 355.242 272.696 355.756C270.437 359.862 260.786 377.419 260.786 377.419Z" fill="#263238"/>
<path d="M272.286 355.96C274.031 352.47 275.263 348.773 276.803 345.283C278.24 341.792 279.78 338.404 281.218 334.913C284.195 327.931 287.173 321.052 290.048 313.968C291.69 310.066 293.128 306.062 294.565 302.058C294.565 301.955 294.77 301.955 294.668 302.058C293.538 305.857 292.306 309.553 291.074 313.249C291.382 312.633 291.69 311.914 292.101 311.298C293.025 309.553 294.052 307.91 295.078 306.165C295.078 306.062 295.181 306.165 295.181 306.268C294.257 308.013 293.333 309.656 292.409 311.298C291.896 312.12 291.382 312.941 290.869 313.763C287.378 324.132 283.271 334.399 278.446 344.359C276.598 348.26 274.339 351.956 272.388 355.858C272.388 356.166 272.183 356.063 272.286 355.96Z" fill="#37474F"/>
<path d="M259.452 366.741C262.327 362.326 269.206 348.876 271.67 344.256C276.598 334.81 281.218 325.262 285.428 315.508C287.892 310.067 290.151 304.522 292.409 298.875H292.512C289.124 308.937 285.12 318.691 280.705 328.342C276.29 337.993 262.224 363.969 259.657 366.741C259.555 366.946 259.349 366.844 259.452 366.741Z" fill="#37474F"/>
<path d="M296.516 306.371C301.649 315.508 306.885 324.646 312.122 333.887C314.688 338.507 317.358 343.127 319.925 347.85C321.157 350.006 322.286 352.265 323.621 354.421C324.853 356.474 326.188 358.117 328.344 359.349C330.705 360.581 333.272 361.197 335.839 361.916C338.713 362.737 341.588 363.661 344.566 364.483C344.668 364.483 344.668 364.688 344.463 364.688C341.896 363.969 339.227 363.353 336.66 362.737C334.299 362.121 331.834 361.608 329.576 360.786C327.522 360.068 325.674 358.938 324.339 357.193C322.799 355.345 321.773 353.086 320.643 351.033C315.51 341.587 310.376 332.141 305.345 322.695C302.265 317.151 299.39 311.812 296.516 306.371C296.516 306.371 296.413 306.371 296.516 306.371Z" fill="#37474F"/>
<path d="M262.121 369C258.527 368.384 254.934 368.076 251.238 367.562C247.644 367.049 244.051 366.638 240.355 366.125C233.168 365.201 208.629 361.3 206.781 360.683C206.678 360.683 206.678 360.478 206.781 360.478C208.527 360.375 224.646 362.532 228.239 363.045C235.426 364.072 242.613 365.406 249.8 366.638C251.854 366.946 253.907 367.357 255.961 367.768C258.014 368.178 260.067 368.589 262.121 368.795C262.326 368.795 262.326 369 262.121 369Z" fill="#37474F"/>
<path d="M224.439 425.059C225.569 422.184 279.574 356.885 283.065 355.755C283.475 355.653 305.652 372.902 305.652 372.902C306.576 374.236 350.314 366.947 350.314 366.947L348.466 419.309L269.409 414.175C269.409 414.175 258.424 420.028 248.464 424.648C242.304 427.523 236.863 429.987 235.323 430.295C231.318 431.116 223.31 427.831 224.439 425.059Z" fill="#FFC4C0"/>
<path d="M235.322 430.294C236.862 429.986 242.303 427.522 248.463 424.647C258.423 419.925 269.408 414.175 269.408 414.175L286.965 415.304L316.432 372.08C310.374 372.901 305.754 373.312 305.549 372.901C305.549 372.901 283.372 355.652 282.961 355.858C279.367 356.987 225.362 422.286 224.336 425.161C223.309 427.83 231.317 431.116 235.322 430.294Z" fill="white"/>
<path d="M223.925 425.058C225.054 422.183 279.367 356.884 282.961 355.755C284.296 355.344 295.179 362.737 305.548 372.798L270.538 414.791C270.538 414.791 239.223 429.678 235.116 430.5C231.009 431.424 222.796 428.036 223.925 425.058Z" fill="#FE9563"/>
<path d="M227.313 426.29C236.656 415.613 273.412 371.464 281.831 360.17C281.934 360.068 281.831 360.068 281.728 360.068C272.18 370.437 235.835 414.894 227.005 426.085C226.902 426.393 227.107 426.599 227.313 426.29Z" fill="#263238"/>
<path d="M240.968 428.344C243.227 425.88 244.151 422.287 243.74 419.617C243.432 417.05 242.303 414.176 239.942 412.327C239.839 412.225 239.736 412.43 239.839 412.43C243.638 416.64 244.151 423.621 240.866 428.241C240.763 428.344 240.866 428.447 240.968 428.344Z" fill="#263238"/>
<path d="M266.635 417.358C270.332 413.046 273.001 406.68 271.666 400.931C271.666 400.725 271.256 400.828 271.256 400.931C270.024 406.578 268.381 411.609 266.019 416.948C265.814 417.358 266.327 417.666 266.635 417.358Z" fill="#263238"/>
<path d="M262.529 419.617C266.225 415.305 268.895 408.939 267.56 403.19C267.56 402.984 267.149 403.087 267.149 403.19C265.917 408.837 264.274 413.867 261.913 419.206C261.708 419.617 262.221 419.925 262.529 419.617Z" fill="#263238"/>
<path d="M258.319 421.979C262.015 417.666 264.684 411.301 263.35 405.551C263.35 405.346 262.939 405.449 262.939 405.551C261.707 411.198 260.064 416.229 257.703 421.568C257.6 421.979 258.113 422.287 258.319 421.979Z" fill="#263238"/>
<path d="M254.212 424.237C257.909 419.925 260.578 413.559 259.243 407.81C259.243 407.604 258.833 407.707 258.833 407.81C257.6 413.457 255.958 418.488 253.596 423.826C253.494 424.237 254.007 424.545 254.212 424.237Z" fill="#263238"/>
<path d="M289.942 371.67C294.049 366.741 286.349 360.376 282.242 365.304C278.238 370.232 285.835 376.598 289.942 371.67Z" fill="#263238"/>
<path d="M274.336 431.835C278.032 431.116 278.546 426.907 277.724 423.929C276.492 419.104 273.412 414.073 269.819 410.685C269.716 410.582 269.613 410.685 269.613 410.685C269.203 410.48 268.689 410.685 268.587 411.198C268.176 416.126 267.047 421.26 268.176 426.188C268.895 428.96 270.846 432.451 274.336 431.835ZM269.511 418.693C269.716 416.229 269.921 413.868 270.024 411.404C271.564 413.97 273.207 416.537 274.439 419.309C275.055 420.644 275.671 421.979 276.082 423.313C276.698 425.47 276.8 432.759 271.667 429.268C268.895 427.42 269.305 421.568 269.511 418.693Z" fill="#263238"/>
<path d="M277.314 398.364C273.515 401.65 271.359 406.475 268.793 410.787C268.485 411.198 268.895 411.711 269.306 411.814C269.306 411.917 269.409 412.019 269.511 412.019C274.337 411.403 279.881 409.042 283.68 405.859C286.041 403.908 288.095 400.109 285.528 397.44C283.167 394.771 279.47 396.413 277.314 398.364ZM282.037 397.851C288.3 398.056 283.885 403.908 282.037 405.243C280.908 406.064 279.573 406.886 278.341 407.604C275.672 409.042 272.899 410.171 270.127 411.403C271.462 409.453 272.694 407.296 274.029 405.243C275.569 402.676 278.546 397.748 282.037 397.851Z" fill="#263238"/>
<path d="M324.851 353.599C324.851 353.599 392.614 344.462 414.791 350.519C445.695 358.835 449.288 396.002 425.468 410.171C395.283 428.036 290.559 418.077 290.559 418.077L319.82 368.795C319.82 368.795 363.66 360.581 402.983 363.764L323.619 373.62L324.851 353.599Z" fill="#263238"/>
<path d="M317.766 372.08C317.766 371.977 317.868 371.875 317.868 371.772C317.868 371.669 317.868 371.669 317.971 371.567C317.971 371.361 318.074 371.259 318.074 371.053C318.176 370.745 318.279 370.335 318.484 370.027C318.587 369.719 318.792 369.411 318.895 369C319.1 368.692 319.306 368.384 319.511 368.076C319.511 368.076 319.614 368.076 319.614 367.973C319.614 367.973 319.614 367.973 319.716 367.973C319.716 367.973 319.716 367.973 319.819 367.973C319.819 367.973 319.819 367.973 319.922 367.973C324.747 367.152 357.397 363.456 362.222 363.148C367.15 362.737 371.976 362.429 376.904 362.224C386.658 361.71 396.514 361.71 406.268 362.326C407.192 362.429 408.116 362.429 409.04 362.532C409.246 362.429 409.451 362.429 409.656 362.429C410.17 362.326 410.58 362.224 411.094 362.121C412.018 362.018 412.839 361.916 413.763 361.71C415.611 361.505 417.459 361.3 419.307 361.094C419.41 361.094 419.41 361.3 419.307 361.3C417.459 361.71 415.611 362.224 413.763 362.532C413.25 362.634 412.736 362.737 412.12 362.84C415.714 363.25 419.205 363.661 422.798 364.174C422.901 364.174 422.901 364.38 422.798 364.38C417.973 363.866 413.044 363.558 408.219 363.456C403.393 363.353 398.568 363.25 393.742 363.353C383.989 363.558 374.132 364.072 364.378 364.79C358.937 365.201 325.569 369.103 320.024 369.103C320.024 369.103 320.024 369.103 319.922 369.103C319.922 369.205 319.819 369.411 319.716 369.513C319.511 369.821 319.408 370.129 319.203 370.437C318.998 370.745 318.895 371.053 318.69 371.361C318.587 371.464 318.484 371.669 318.382 371.772C318.382 371.875 318.279 371.875 318.279 371.977C318.279 372.08 318.176 372.08 318.176 372.183C317.868 372.285 317.663 372.183 317.766 372.08Z" fill="#37474F"/>
<path d="M305.548 414.997C307.293 412.122 308.731 409.144 310.373 406.167C312.016 403.19 313.556 400.315 315.199 397.337C318.382 391.485 329.881 371.772 330.908 370.437C331.01 370.335 331.113 370.437 331.113 370.54C330.6 372.08 323.413 385.119 321.77 387.994C318.484 393.846 314.994 399.493 311.605 405.243C310.681 406.886 309.655 408.528 308.628 410.171C307.601 411.814 306.575 413.354 305.651 415.099C305.651 415.202 305.548 415.099 305.548 414.997Z" fill="#37474F"/>
<path d="M332.756 375.879C335.63 375.263 338.608 374.852 341.585 374.441C344.563 373.928 347.437 373.517 350.415 373.004C356.267 372.08 362.222 371.156 368.074 370.334C379.882 368.692 391.689 367.357 403.496 366.638C410.17 366.228 416.843 366.022 423.619 365.817C423.722 365.817 423.722 366.022 423.619 366.022C411.71 366.125 399.8 367.357 387.89 368.692C376.185 370.026 364.481 371.566 352.776 373.209C349.491 373.723 346.205 374.133 342.92 374.647C339.532 375.16 336.246 375.776 332.858 376.084C332.653 376.084 332.55 375.879 332.756 375.879Z" fill="#37474F"/>
<path d="M332.653 291.073C326.185 302.367 300.312 337.377 292.201 338.507C283.782 339.739 252.57 337.069 246.82 330.293C244.048 327.008 248.566 298.876 252.878 300.416C257.19 301.956 283.885 308.424 287.273 307.911C290.661 307.397 318.382 280.6 328.547 274.851C346.206 264.994 336.144 284.912 332.653 291.073Z" fill="#FFC4C0"/>
<path d="M259.757 301.34L253.186 336.146C253.186 336.146 284.398 342.511 293.638 339.842C302.879 337.172 328.547 300.519 336.144 286.042C343.639 271.565 337.068 267.767 323.618 276.802C310.168 285.837 288.505 306.063 286.451 306.166C284.295 306.268 259.757 301.34 259.757 301.34Z" fill="#FE9563"/>
<path d="M326.904 279.574C326.185 280.293 325.466 281.217 325.056 282.243C326.082 281.833 326.904 281.114 327.725 280.395C328.444 279.677 329.162 278.753 329.573 277.726C328.444 278.137 327.622 278.855 326.904 279.574ZM259.449 332.655C258.422 332.655 257.293 332.758 256.266 333.168C257.293 333.579 258.422 333.682 259.449 333.784C260.475 333.784 261.605 333.682 262.632 333.168C261.605 332.758 260.578 332.655 259.449 332.655ZM310.476 322.285C309.45 322.285 308.32 322.388 307.294 322.798C308.32 323.209 309.45 323.312 310.476 323.415C310.579 323.415 310.784 323.415 310.887 323.415C311.195 323.107 311.4 322.696 311.708 322.388C311.298 322.285 310.887 322.285 310.476 322.285ZM288.299 330.601C287.889 331.628 287.786 332.758 287.786 333.784C287.786 334.811 287.889 335.94 288.299 336.967C288.71 335.94 288.813 334.811 288.915 333.784C288.813 332.758 288.71 331.628 288.299 330.601ZM314.481 296.515C314.07 297.541 313.967 298.671 313.967 299.697C313.967 300.724 314.07 301.854 314.481 302.88C314.891 301.854 314.994 300.724 314.994 299.697C314.994 298.671 314.891 297.644 314.481 296.515ZM326.904 279.574C326.185 280.293 325.466 281.217 325.056 282.243C326.082 281.833 326.904 281.114 327.725 280.395C328.444 279.677 329.162 278.753 329.573 277.726C328.444 278.137 327.622 278.855 326.904 279.574ZM293.228 308.322C292.509 309.041 291.79 309.862 291.38 310.991C292.406 310.581 293.228 309.862 294.049 309.143C294.768 308.425 295.486 307.603 295.897 306.474C294.87 306.884 294.049 307.603 293.228 308.322ZM261.708 301.751C261.605 301.854 261.502 301.956 261.4 302.059C260.681 302.778 259.962 303.599 259.551 304.728C260.578 304.318 261.4 303.599 262.221 302.88C262.426 302.572 262.734 302.367 262.94 302.059C262.529 301.956 262.118 301.854 261.708 301.751ZM274.336 319C273.617 318.281 272.796 317.562 271.667 317.152C272.077 318.178 272.796 319 273.515 319.821C274.233 320.54 275.055 321.258 276.184 321.669C275.671 320.642 275.055 319.821 274.336 319ZM310.476 322.285C309.45 322.285 308.32 322.388 307.294 322.798C308.32 323.209 309.45 323.312 310.476 323.415C310.579 323.415 310.784 323.415 310.887 323.415C311.195 323.107 311.4 322.696 311.708 322.388C311.298 322.285 310.887 322.285 310.476 322.285ZM314.481 296.515C314.07 297.541 313.967 298.671 313.967 299.697C313.967 300.724 314.07 301.854 314.481 302.88C314.891 301.854 314.994 300.724 314.994 299.697C314.994 298.671 314.891 297.644 314.481 296.515Z" fill="white"/>
<path d="M265.403 320.334C265.917 317.562 267.97 306.576 268.278 303.701C268.278 303.701 268.175 303.599 268.175 303.701C267.354 306.268 264.993 317.151 264.479 319.923C263.453 325.468 262.22 330.909 261.707 336.556C261.707 336.659 261.81 336.659 261.912 336.556C263.555 331.32 264.377 325.776 265.403 320.334Z" fill="#263238"/>
<path opacity="0.1" d="M336.144 286.145C328.649 300.621 302.878 337.275 293.638 339.944C286.656 341.998 267.046 338.815 257.908 337.172L335.63 272.079C340.045 272.387 340.764 277.212 336.144 286.145Z" fill="black"/>
<path d="M308.938 355.242L385.736 359.657C385.633 358.117 373.621 314.071 364.996 297.233C353.908 275.775 348.98 272.489 345.694 271.36C341.485 269.922 332.86 269.922 330.293 274.029C316.536 296.001 307.808 354.215 308.938 355.242Z" fill="#FE9563"/>
<path d="M327.624 278.855C327.214 279.676 326.803 280.498 326.392 281.422C326.803 281.114 327.214 280.703 327.624 280.395C328.343 279.676 329.062 278.752 329.472 277.726C328.856 278.034 328.138 278.444 327.624 278.855ZM350.725 350.109C350.007 350.827 349.288 351.649 348.877 352.778C349.904 352.367 350.725 351.649 351.547 350.93C352.265 350.109 352.984 349.287 353.395 348.261C352.368 348.671 351.547 349.39 350.725 350.109ZM327.624 278.855C327.214 279.676 326.803 280.498 326.392 281.422C326.803 281.114 327.214 280.703 327.624 280.395C328.343 279.676 329.062 278.752 329.472 277.726C328.856 278.034 328.138 278.444 327.624 278.855ZM372.697 316.433C372.492 316.33 372.286 316.227 372.081 316.125C372.389 316.843 372.8 317.459 373.21 317.973C373.108 317.459 372.902 316.946 372.697 316.433ZM355.859 280.806C355.551 280.498 355.243 280.19 354.935 279.984C354.421 279.574 353.908 279.266 353.292 278.958C353.703 279.984 354.421 280.806 355.14 281.627C355.756 282.14 356.372 282.756 357.091 283.064C357.296 283.167 357.604 283.372 357.81 283.475C357.296 282.448 356.578 281.627 355.859 280.806ZM335.017 316.741C334.298 316.022 333.477 315.303 332.347 314.892C332.758 315.919 333.476 316.741 334.195 317.562C334.914 318.281 335.735 318.999 336.865 319.41C336.454 318.383 335.735 317.562 335.017 316.741ZM354.319 327.418C353.292 327.418 352.163 327.521 351.136 328.034C352.163 328.445 353.292 328.548 354.319 328.548C355.345 328.548 356.475 328.445 357.502 328.034C356.475 327.521 355.448 327.418 354.319 327.418ZM335.633 293.742C334.606 293.742 333.476 293.845 332.45 294.358C333.476 294.769 334.606 294.872 335.633 294.872C336.659 294.872 337.789 294.769 338.815 294.358C337.686 293.845 336.659 293.742 335.633 293.742ZM327.316 339.636C326.906 340.663 326.803 341.792 326.7 342.819C326.7 343.846 326.803 344.975 327.316 346.002C327.727 344.975 327.83 343.846 327.83 342.819C327.83 341.69 327.727 340.663 327.316 339.636ZM371.259 336.453C370.849 337.48 370.746 338.61 370.643 339.636C370.643 340.663 370.746 341.792 371.259 342.819C371.67 341.792 371.773 340.663 371.773 339.636C371.773 338.507 371.67 337.48 371.259 336.453ZM355.448 302.059C355.037 303.085 354.935 304.215 354.832 305.241C354.832 306.268 354.935 307.397 355.448 308.424C355.859 307.397 355.961 306.268 355.961 305.241C355.961 304.215 355.961 303.085 355.448 302.059Z" fill="white"/>
<path d="M358.527 281.215C377.931 305.035 399.184 344.666 388.712 352.366C379.266 359.348 346.411 350.518 325.98 341.175C322.078 339.43 340.046 305.138 344.05 307.499C350.929 311.503 356.37 313.967 356.986 314.173C358.116 314.583 352.264 306.575 346.206 287.786C340.046 268.587 347.438 267.56 358.527 281.215Z" fill="#FFC4C0"/>
<path d="M293.536 302.16C293.331 306.267 303.393 305.959 303.393 305.959C303.393 305.959 300.929 307.294 300.107 309.861C299.183 312.838 303.393 315.61 303.393 315.61C303.393 315.61 301.134 317.458 300.621 320.333C300.005 323.311 303.906 326.596 303.906 326.596C303.906 326.596 302.777 329.471 304.009 332.243C306.165 337.069 314.173 337.582 319.101 338.814C324.338 340.251 332.038 343.332 335.118 344.872L346.309 308.731C346.309 308.731 325.467 294.768 319.409 294.768C314.378 294.768 293.844 295.897 293.536 302.16Z" fill="#FFC4C0"/>
<path d="M303.494 305.857C308.936 304.625 314.583 304.625 320.127 304.727C320.23 304.727 320.23 304.933 320.127 304.933C314.685 304.727 309.038 306.062 303.494 306.165C303.289 306.165 303.289 305.857 303.494 305.857Z" fill="#263238"/>
<path d="M303.596 315.2C304.828 314.994 306.163 315.097 307.395 315.2C308.73 315.302 310.065 315.405 311.399 315.508C314.069 315.816 316.738 316.124 319.408 316.534C319.51 316.534 319.51 316.74 319.408 316.74C316.738 316.432 314.069 316.226 311.399 316.124C310.065 316.021 308.73 316.021 307.395 315.918C306.163 315.918 304.828 315.918 303.596 315.61C303.391 315.508 303.391 315.302 303.596 315.2Z" fill="#263238"/>
<path d="M304.008 326.699C305.034 326.391 306.369 326.699 307.396 326.904C308.628 327.007 309.86 327.212 311.092 327.315C313.556 327.623 315.917 327.828 318.382 328.034C318.484 328.034 318.484 328.239 318.382 328.239C315.917 328.034 313.453 327.931 310.887 327.726C309.654 327.623 308.422 327.52 307.19 327.418C306.164 327.315 304.829 327.315 303.905 326.802C303.905 326.699 304.008 326.699 304.008 326.699Z" fill="#263238"/>
<path d="M347.336 308.423L337.274 347.438C337.274 347.438 385.94 362.942 391.793 350.724C397.542 338.506 371.053 290.559 354.934 276.39C338.917 262.221 344.05 283.474 344.461 285.117C346.309 292.612 355.858 312.53 355.858 312.53L347.336 308.423Z" fill="#FE9563"/>
<path d="M355.448 302.058C355.037 303.085 354.934 304.214 354.832 305.241C354.832 306.267 354.934 307.397 355.448 308.424C355.858 307.397 355.961 306.267 355.961 305.241C355.961 304.214 355.961 303.085 355.448 302.058ZM371.259 336.453C370.848 337.48 370.746 338.609 370.643 339.636C370.643 340.662 370.746 341.792 371.259 342.818C371.67 341.792 371.772 340.662 371.772 339.636C371.772 338.506 371.67 337.48 371.259 336.453ZM354.318 327.418C353.292 327.418 352.162 327.52 351.136 328.034C352.162 328.444 353.292 328.547 354.318 328.547C355.345 328.547 356.474 328.444 357.501 328.034C356.474 327.52 355.448 327.418 354.318 327.418ZM355.858 280.805C355.14 280.086 354.318 279.368 353.189 278.957C353.6 279.984 354.318 280.805 355.037 281.626C355.756 282.345 356.68 283.064 357.706 283.474C357.296 282.448 356.577 281.626 355.858 280.805ZM389.637 347.849C388.919 347.131 388.097 346.412 386.968 346.001C387.378 347.028 388.097 347.849 388.816 348.671C389.535 349.389 390.459 350.108 391.485 350.519C390.972 349.389 390.356 348.568 389.637 347.849ZM374.75 317.972C374.031 317.253 373.107 316.535 372.08 316.124C372.491 317.151 373.21 317.972 373.929 318.793C374.647 319.512 375.571 320.231 376.598 320.641C376.187 319.615 375.571 318.793 374.75 317.972ZM350.725 350.108C350.417 350.416 350.109 350.724 349.903 351.032C350.314 351.135 350.622 351.237 351.033 351.34C351.238 351.237 351.341 351.032 351.444 350.929C352.162 350.108 352.881 349.287 353.292 348.26C352.368 348.671 351.546 349.389 350.725 350.108Z" fill="white"/>
<path d="M348.26 308.526C353.804 310.785 368.28 318.999 371.361 322.284C371.463 322.387 371.361 322.489 371.258 322.489C368.178 320.025 350.313 310.066 347.438 308.834C347.438 308.834 347.233 309.142 347.233 309.245C347.13 309.348 347.027 309.245 347.027 309.142C347.027 309.04 347.233 308.218 347.335 308.218C347.335 308.218 347.644 308.321 348.26 308.526Z" fill="#263238"/>
<path d="M351.238 330.806C351.957 328.034 354.523 317.151 355.037 314.379C355.037 314.379 354.934 314.276 354.934 314.379C354.01 316.946 351.033 327.623 350.417 330.395C349.082 335.837 347.542 341.279 346.823 346.823C346.823 346.926 346.926 347.028 347.028 346.926C348.774 341.689 349.903 336.248 351.238 330.806Z" fill="#263238"/>
<path d="M356.268 312.941C354.933 309.45 353.188 306.165 351.648 302.777C350.108 299.389 348.568 296.103 347.13 292.612H347.027C347.849 294.974 348.67 297.233 349.594 299.491C349.286 299.081 348.978 298.773 348.773 298.362C348.26 297.643 347.849 296.925 347.438 296.206H347.335C347.644 297.027 348.054 297.746 348.568 298.465C348.978 298.978 349.389 299.491 349.8 300.005C350.21 300.929 350.518 301.853 350.929 302.777C352.469 306.165 353.598 309.553 355.549 312.736C355.755 313.044 356.371 313.044 356.268 312.941Z" fill="#263238"/>
<path d="M384.605 354.831C374.544 356.269 342.921 348.876 337.582 347.541C337.685 346.925 337.685 346.72 337.787 346.001C337.787 345.899 337.685 345.796 337.582 345.899C337.377 346.617 336.761 348.158 336.966 348.26C339.533 349.39 374.749 357.501 384.503 355.036C384.708 355.036 384.708 354.831 384.605 354.831Z" fill="#263238"/>
<path d="M306.474 339.944L265.405 344.667L251.031 287.273L292.203 282.653L306.474 339.944Z" fill="#37474F"/>
<path d="M304.523 340.252L263.352 344.872L248.978 287.479L290.149 282.858L304.523 340.252Z" fill="#455A64"/>
<path d="M271.051 311.914C271.462 314.07 273.618 315.713 275.877 315.405C278.136 315.2 279.47 313.146 279.06 310.99C278.649 308.834 276.493 307.191 274.234 307.499C272.078 307.808 270.641 309.758 271.051 311.914Z" fill="white"/>
<path d="M249.181 299.286C247.333 304.008 242.302 310.169 242.2 313.968C242.097 317.356 244.972 318.382 244.972 318.382C244.972 318.382 241.378 320.539 241.789 324.029C241.994 325.775 245.075 327.007 245.075 327.007C245.075 327.007 242.302 328.855 242.816 331.935C243.226 334.399 246.204 335.221 246.204 335.221C246.204 335.221 244.356 338.301 245.588 340.559C248.155 345.282 269.305 343.537 271.974 335.529C273.206 331.73 268.073 332.448 268.073 332.448C268.073 332.448 275.26 329.676 274.952 325.261C274.746 320.847 268.073 322.181 268.073 322.181C268.073 322.181 274.952 319.409 274.233 314.892C273.514 310.169 267.046 312.633 267.046 312.633C267.046 312.633 271.461 309.039 270.126 305.754C267.97 300.312 259.551 308.013 254.828 307.294L251.646 299.799L249.181 299.286Z" fill="#FFC4C0"/>
<path d="M245.486 306.267C246.82 301.647 240.763 296.514 241.379 291.791C242.2 285.528 249.593 290.969 251.954 299.799L252.467 306.986L245.486 306.267Z" fill="#FFC4C0"/>
<path d="M246.718 335.324C246.615 335.324 246.615 335.426 246.718 335.426C253.802 336.556 261.913 335.632 268.381 332.346C268.587 332.244 268.484 331.833 268.278 331.936C260.989 334.092 254.315 335.324 246.718 335.324Z" fill="#263238"/>
<path d="M244.972 327.007C244.87 327.007 244.87 327.11 244.972 327.11C252.262 328.239 261.4 326.905 268.381 322.284C268.587 322.079 268.689 321.771 268.381 321.874C263.556 324.748 251.851 327.007 244.972 327.007Z" fill="#263238"/>
<path d="M267.56 312.12C260.681 316.329 253.186 317.87 245.178 318.383C245.075 318.383 245.075 318.486 245.178 318.588C249.182 319.41 254.213 318.588 258.011 317.562C261.708 316.637 264.89 314.995 267.663 312.428C267.868 312.325 267.765 312.12 267.56 312.12Z" fill="#263238"/>
<path d="M334.606 286.76C339.124 286.965 345.181 278.957 347.029 273.002C347.132 272.591 345.797 268.895 344.463 264.275C343.641 261.503 342.82 258.32 342.204 255.445C342.101 254.829 324.75 263.556 324.75 263.556C324.75 263.556 327.727 269.306 328.754 274.439C328.857 274.85 328.857 275.261 328.857 275.671C328.857 275.774 328.857 275.774 328.857 275.877C328.959 278.136 330.294 286.657 334.606 286.76Z" fill="#FFC4C0"/>
<path d="M341.075 255.753C341.177 260.887 340.459 273.412 330.705 275.569C329.986 275.671 329.37 275.774 328.857 275.877C328.857 275.774 328.857 275.774 328.857 275.671C328.857 275.26 328.857 274.85 328.754 274.439C327.727 269.306 324.75 263.556 324.75 263.556C324.75 263.556 337.276 257.293 341.075 255.753Z" fill="#263238"/>
<path d="M345.387 236.245C347.235 242.919 343.334 261.913 338.611 266.123C331.629 272.18 320.438 272.488 315.407 264.172C310.479 256.164 316.023 231.42 321.362 227.621C329.062 222.077 342.512 226.389 345.387 236.245Z" fill="#FFC4C0"/>
<path d="M326.393 247.539L326.496 247.642C326.188 248.874 325.983 250.414 327.009 251.133V251.235C325.572 250.619 325.88 248.669 326.393 247.539Z" fill="#263238"/>
<path d="M327.832 246.512C329.885 246.82 329.064 251.03 327.113 250.722C325.265 250.311 326.086 246.204 327.832 246.512Z" fill="#263238"/>
<path d="M319.205 246.102C319.205 246.102 319.102 246.102 319.102 246.205C318.897 247.539 318.384 248.977 317.152 249.182V249.285C318.589 249.285 319.205 247.437 319.205 246.102Z" fill="#263238"/>
<path d="M318.28 244.562C316.227 243.946 315.303 248.155 317.151 248.669C318.999 249.182 320.026 245.075 318.28 244.562Z" fill="#263238"/>
<path d="M329.884 244.151C329.37 243.946 328.857 243.535 328.344 243.227C327.728 242.919 327.317 242.714 327.009 241.995C326.804 241.687 327.009 241.174 327.317 240.968C328.036 240.558 328.857 240.763 329.576 241.174C330.294 241.584 330.808 242.098 331.116 242.919C331.424 243.74 330.5 244.459 329.884 244.151Z" fill="#263238"/>
<path d="M316.741 242.098C317.357 242.2 317.871 242.098 318.487 242.098C319.103 242.098 319.719 242.2 320.232 241.79C320.54 241.584 320.643 241.071 320.437 240.763C320.027 240.044 319.205 239.839 318.384 239.736C317.563 239.736 316.844 239.839 316.125 240.352C315.612 240.968 316.023 241.995 316.741 242.098Z" fill="#263238"/>
<path d="M326.7 259.552C326.392 259.86 326.187 260.373 325.776 260.476C325.365 260.579 324.749 260.476 324.339 260.373C324.339 260.373 324.236 260.373 324.339 260.476C324.749 260.887 325.468 261.092 326.084 260.887C326.7 260.681 326.906 260.168 326.906 259.552C326.803 259.449 326.7 259.449 326.7 259.552Z" fill="#263238"/>
<path d="M325.571 255.752C324.647 256.676 323.415 257.087 322.286 257.087C321.773 257.087 321.259 256.984 320.746 256.882C320.643 256.882 320.54 256.779 320.438 256.779C320.335 256.779 320.232 256.676 320.13 256.676C320.027 256.574 319.924 256.471 319.924 256.368V256.266V256.163C320.13 255.136 320.438 253.699 320.438 253.699C320.027 253.802 318.076 254.315 318.179 253.802C319.308 249.592 320.54 244.869 322.491 240.865C322.594 240.762 322.799 240.762 322.697 240.968C321.773 245.075 320.13 248.976 319.206 253.083C319.822 252.98 320.849 252.775 321.362 252.878C321.465 252.98 320.541 255.752 320.541 256.163C322.183 256.676 323.518 256.471 325.366 255.65C325.571 255.547 325.674 255.65 325.571 255.752Z" fill="#263238"/>
<path d="M321.771 256.985C321.771 256.985 322.593 258.115 323.62 258.628C324.03 258.833 324.441 258.936 324.954 258.833C325.981 258.628 325.981 257.704 325.878 256.985C325.776 256.369 325.468 255.753 325.468 255.753C325.468 255.753 324.03 256.985 321.771 256.985Z" fill="#263238"/>
<path d="M323.619 258.628C324.03 258.833 324.44 258.936 324.954 258.833C325.98 258.628 325.98 257.704 325.878 256.985C324.851 256.985 323.824 257.601 323.619 258.628Z" fill="#FF9BBC"/>
<path d="M346.106 251.133C341.075 251.338 338.509 245.281 339.843 240.455C339.843 240.455 326.393 241.995 325.983 231.215C325.983 231.215 323.211 235.835 317.153 235.835L315.613 239.736C314.278 239.326 312.841 235.322 316.332 232.344C316.332 232.344 316.64 227.005 320.746 223.822C324.751 220.64 328.652 222.898 328.652 222.898C328.652 222.898 331.835 220.332 336.763 221.05C341.691 221.769 343.642 226.389 343.642 226.389C343.642 226.389 350.213 227.827 351.342 232.549C352.369 237.272 349.905 240.455 349.905 240.455C349.905 240.455 351.548 242.303 350.624 246.307C349.802 248.977 347.646 251.03 346.106 251.133Z" fill="#263238"/>
<path d="M326.29 230.291C326.188 231.215 326.085 232.036 326.188 232.96C326.188 233.884 326.393 234.706 326.598 235.527C327.112 237.17 328.138 238.607 329.576 239.428C331.013 240.353 332.759 240.558 334.504 240.763C335.325 240.763 336.249 240.763 337.173 240.763C338.098 240.661 338.919 240.558 339.843 240.558C339.022 240.763 338.098 240.866 337.276 241.071C336.352 241.174 335.531 241.174 334.607 241.277C332.861 241.174 331.013 240.969 329.37 239.942C327.83 239.018 326.598 237.375 326.188 235.63C325.674 233.782 325.777 231.933 326.29 230.291Z" fill="#263238"/>
<path d="M319.206 236.348C320.746 235.835 322.081 235.219 323.313 234.192C323.929 233.781 324.442 233.165 324.956 232.549C325.469 231.933 325.777 231.215 326.085 230.496C325.982 231.317 325.777 232.036 325.264 232.755C324.853 233.473 324.34 234.089 323.621 234.603C323.005 235.116 322.286 235.527 321.465 235.732C320.849 236.143 320.027 236.348 319.206 236.348Z" fill="#263238"/>
<path d="M340.87 251.748C340.87 251.748 345.49 245.794 348.159 247.436C350.931 249.079 347.235 257.909 343.95 259.038C340.562 260.167 339.535 257.087 339.535 257.087L340.87 251.748Z" fill="#FFC4C0"/>
<path d="M347.133 249.901C347.235 249.901 347.235 250.003 347.133 249.901C344.771 250.825 343.539 252.878 342.513 255.137C343.231 254.316 344.155 253.905 345.285 254.726C345.387 254.726 345.285 254.829 345.182 254.829C344.258 254.624 343.539 254.726 342.923 255.445C342.41 255.958 342.102 256.677 341.794 257.19C341.691 257.396 341.281 257.293 341.383 256.985C341.383 256.985 341.383 256.985 341.383 256.882C341.486 254.11 343.95 250.106 347.133 249.901Z" fill="#263238"/>
<g opacity="0.2">
<path d="M333.682 253.494C333.682 253.7 333.785 253.802 333.99 253.802C334.196 253.802 334.298 253.7 334.298 253.494C334.298 253.289 334.196 253.186 333.99 253.186C333.785 253.186 333.682 253.392 333.682 253.494Z" fill="black"/>
<path d="M327.213 253.494C327.213 253.7 327.316 253.802 327.521 253.802C327.727 253.802 327.829 253.7 327.829 253.494C327.829 253.289 327.727 253.186 327.521 253.186C327.316 253.186 327.213 253.289 327.213 253.494Z" fill="black"/>
<path d="M329.576 255.651C329.576 255.856 329.679 255.959 329.884 255.959C330.089 255.959 330.192 255.856 330.192 255.651C330.192 255.445 330.089 255.342 329.884 255.342C329.679 255.342 329.576 255.445 329.576 255.651Z" fill="black"/>
<path d="M333.374 251.03C333.374 251.235 333.477 251.338 333.682 251.338C333.887 251.338 333.99 251.235 333.99 251.03C333.99 250.825 333.887 250.722 333.682 250.722C333.477 250.722 333.374 250.825 333.374 251.03Z" fill="black"/>
<path d="M330.397 252.878C330.397 253.084 330.5 253.186 330.705 253.186C330.911 253.186 331.013 253.084 331.013 252.878C331.013 252.673 330.911 252.57 330.705 252.57C330.5 252.57 330.397 252.673 330.397 252.878Z" fill="black"/>
<path d="M314.483 249.08C314.483 249.285 314.585 249.388 314.791 249.388C314.996 249.388 315.099 249.285 315.099 249.08C315.099 248.874 314.996 248.772 314.791 248.772C314.585 248.772 314.483 248.977 314.483 249.08Z" fill="black"/>
<path d="M316.947 250.722C316.947 250.927 317.049 251.03 317.255 251.03C317.46 251.03 317.563 250.927 317.563 250.722C317.563 250.517 317.46 250.414 317.255 250.414C317.049 250.414 316.947 250.619 316.947 250.722Z" fill="black"/>
<path d="M316.433 252.776C316.433 252.981 316.536 253.084 316.741 253.084C316.946 253.084 317.049 252.981 317.049 252.776C317.049 252.57 316.946 252.468 316.741 252.468C316.536 252.468 316.433 252.57 316.433 252.776Z" fill="black"/>
<path d="M314.277 251.441C314.277 251.646 314.38 251.749 314.585 251.749C314.791 251.749 314.893 251.646 314.893 251.441C314.893 251.236 314.791 251.133 314.585 251.133C314.38 251.133 314.277 251.338 314.277 251.441Z" fill="black"/>
</g>
<path d="M407.81 207.601C407.81 221.564 396.414 232.961 382.45 232.961C376.804 232.961 371.567 231.113 367.358 227.93L354.935 231.113L360.068 219.511C358.117 215.917 357.091 211.913 357.091 207.601C357.091 193.638 368.487 182.241 382.45 182.241C396.414 182.344 407.81 193.638 407.81 207.601Z" fill="white"/>
<path d="M407.811 207.601C408.016 222.283 394.874 234.399 380.295 233.064C375.572 232.756 371.054 231.01 367.153 228.238L367.461 228.341L355.038 231.627L354.114 231.832L354.524 231.01L359.658 219.409V219.819C353.806 209.45 356.68 195.384 365.921 187.991C382.553 174.233 407.708 186.041 407.811 207.601ZM407.811 207.601C407.913 191.379 391.999 179.059 376.393 183.371C365.202 186.041 357.091 197.129 357.707 208.526C357.912 212.324 358.836 216.021 360.582 219.306L360.684 219.511L360.582 219.717L355.346 231.216L354.832 230.6L367.255 227.52H367.461C372.081 231.011 377.933 232.961 383.785 232.653C396.927 232.345 407.913 220.743 407.811 207.601Z" fill="#FE9563"/>
<path d="M381.732 193.741C377.933 197.54 377.933 203.7 381.732 207.499C385.531 211.298 391.691 211.298 395.49 207.499C399.289 203.7 399.289 197.54 395.49 193.741C391.691 189.942 385.531 189.942 381.732 193.741ZM393.436 198.258C392.718 198.977 391.588 198.977 390.87 198.258C390.151 197.54 390.151 196.41 390.87 195.691C391.588 194.973 392.718 194.973 393.436 195.691C394.155 196.41 394.155 197.54 393.436 198.258Z" fill="#FE9563"/>
<path d="M380.376 202.424L378.271 204.53L384.587 210.846L386.692 208.741L380.376 202.424Z" fill="#FFB795"/>
<path d="M379.268 205.548L383.581 209.757L382.554 210.887L380.808 210.271L381.322 212.119L379.576 213.762L377.215 213.351L377.728 215.712L377.318 216.02L375.572 215.507L376.086 217.252L374.34 216.739L374.854 218.484L373.519 219.922L371.157 219.408L371.671 221.77L370.439 222.899L365.716 223.413L366.229 218.69L379.268 205.548Z" fill="#FE9563"/>
<path d="M380.61 208.009L368.413 220.205L368.703 220.496L380.9 208.299L380.61 208.009Z" fill="#FFE8DD"/>
<g opacity="0.1">
<path d="M397.031 200.62C397.133 208.115 387.79 212.016 382.451 206.78C379.063 203.597 379.063 197.745 382.451 194.562C387.79 189.121 397.133 193.125 397.031 200.62ZM397.031 200.62C397.031 193.228 387.893 189.531 382.759 194.768C379.576 197.848 379.576 203.289 382.759 206.369C387.893 211.708 397.031 207.909 397.031 200.62Z" fill="white"/>
</g>
<circle cx="174.726" cy="221.734" r="17.2952" stroke="#FE9563" stroke-width="2.66081"/>
<circle cx="265.194" cy="221.734" r="17.2952" stroke="#FE9563" stroke-width="2.66081"/>
<path fill-rule="evenodd" clip-rule="evenodd" d="M169.688 213.779L166.771 216.696L172.119 222.045L166.771 227.393L169.689 230.311L175.037 224.962L180.385 230.31L183.302 227.393L177.954 222.045L183.303 216.696L180.385 213.779L175.037 219.128L169.688 213.779Z" fill="#FE9563"/>
</svg>
